<?xml version="1.0" encoding="UTF-8" standalone="no"?>
<!-- Created with Inkscape (http://www.inkscape.org/) -->

<svg
   xmlns:dc="http://purl.org/dc/elements/1.1/"
   xmlns:cc="http://creativecommons.org/ns#"
   xmlns:rdf="http://www.w3.org/1999/02/22-rdf-syntax-ns#"
   xmlns:svg="http://www.w3.org/2000/svg"
   xmlns="http://www.w3.org/2000/svg"
   xmlns:xlink="http://www.w3.org/1999/xlink"
   xmlns:sodipodi="http://sodipodi.sourceforge.net/DTD/sodipodi-0.dtd"
   xmlns:inkscape="http://www.inkscape.org/namespaces/inkscape"
   width="1024"
   height="512"
   id="svg2"
   version="1.1"
   inkscape:version="0.47 r22583"
   sodipodi:docname="background.svg"
   inkscape:export-filename="/Users/cameronrossjohnson/Documents/Docs/Project Workspaces/Programming/TwGit/TwConnect/html/bg.jpg.png"
   inkscape:export-xdpi="180"
   inkscape:export-ydpi="180">
  <defs
     id="defs4">
    <linearGradient
       id="linearGradient3858">
      <stop
         style="stop-color:#1c90be;stop-opacity:1;"
         offset="0"
         id="stop3860" />
      <stop
         style="stop-color:#20a6dc;stop-opacity:1;"
         offset="1"
         id="stop3862" />
    </linearGradient>
    <linearGradient
       id="linearGradient3850">
      <stop
         style="stop-color:#9fdaf1;stop-opacity:1;"
         offset="0"
         id="stop3852" />
      <stop
         style="stop-color:#cbebf7;stop-opacity:1;"
         offset="1"
         id="stop3854" />
    </linearGradient>
    <linearGradient
       id="linearGradient3842">
      <stop
         style="stop-color:#73c9eb;stop-opacity:1;"
         offset="0"
         id="stop3844" />
      <stop
         style="stop-color:#9fdaf1;stop-opacity:1;"
         offset="1"
         id="stop3846" />
    </linearGradient>
    <linearGradient
       id="linearGradient3824">
      <stop
         style="stop-color:#73c9eb;stop-opacity:1;"
         offset="0"
         id="stop3826" />
      <stop
         style="stop-color:#73c9eb;stop-opacity:1;"
         offset="1"
         id="stop3828" />
    </linearGradient>
    <linearGradient
       id="linearGradient3816">
      <stop
         style="stop-color:#47b8e5;stop-opacity:1;"
         offset="0"
         id="stop3818" />
      <stop
         style="stop-color:#73c9eb;stop-opacity:1;"
         offset="1"
         id="stop3820" />
    </linearGradient>
    <linearGradient
       id="linearGradient3808">
      <stop
         style="stop-color:#20a5da;stop-opacity:1;"
         offset="0"
         id="stop3810" />
      <stop
         style="stop-color:#48b8e4;stop-opacity:1;"
         offset="1"
         id="stop3812" />
    </linearGradient>
    <inkscape:perspective
       sodipodi:type="inkscape:persp3d"
       inkscape:vp_x="0 : 526.18109 : 1"
       inkscape:vp_y="0 : 1000 : 0"
       inkscape:vp_z="744.09448 : 526.18109 : 1"
       inkscape:persp3d-origin="372.04724 : 350.78739 : 1"
       id="perspective10" />
    <linearGradient
       inkscape:collect="always"
       xlink:href="#linearGradient3808"
       id="linearGradient3814"
       x1="512"
       y1="291.4375"
       x2="512"
       y2="64.84375"
       gradientUnits="userSpaceOnUse" />
    <linearGradient
       inkscape:collect="always"
       xlink:href="#linearGradient3816"
       id="linearGradient3822"
       x1="621.28125"
       y1="345.71875"
       x2="621.28125"
       y2="183.4375"
       gradientUnits="userSpaceOnUse" />
    <linearGradient
       inkscape:collect="always"
       xlink:href="#linearGradient3824"
       id="linearGradient3830"
       x1="694.27679"
       y1="414.84375"
       x2="686.85712"
       y2="240.5625"
       gradientUnits="userSpaceOnUse" />
    <linearGradient
       inkscape:collect="always"
       xlink:href="#linearGradient3842"
       id="linearGradient3848"
       x1="547.14288"
       y1="414.84375"
       x2="544"
       y2="240.5625"
       gradientUnits="userSpaceOnUse" />
    <linearGradient
       inkscape:collect="always"
       xlink:href="#linearGradient3850"
       id="linearGradient3856"
       x1="0"
       y1="385.57812"
       x2="1024"
       y2="385.57812"
       gradientUnits="userSpaceOnUse" />
    <linearGradient
       inkscape:collect="always"
       xlink:href="#linearGradient3858"
       id="linearGradient3864"
       x1="512"
       y1="234.28125"
       x2="512"
       y2="0"
       gradientUnits="userSpaceOnUse" />
  </defs>
  <sodipodi:namedview
     id="base"
     pagecolor="#ffffff"
     bordercolor="#666666"
     borderopacity="1.0"
     inkscape:pageopacity="0.0"
     inkscape:pageshadow="2"
     inkscape:zoom="0.7"
     inkscape:cx="533.57148"
     inkscape:cy="212.8355"
     inkscape:document-units="px"
     inkscape:current-layer="layer1"
     showgrid="false"
     inkscape:window-width="1280"
     inkscape:window-height="752"
     inkscape:window-x="0"
     inkscape:window-y="0"
     inkscape:window-maximized="1" />
  <metadata
     id="metadata7">
    <rdf:RDF>
      <cc:Work
         rdf:about="">
        <dc:format>image/svg+xml</dc:format>
        <dc:type
           rdf:resource="http://purl.org/dc/dcmitype/StillImage" />
        <dc:title></dc:title>
      </cc:Work>
    </rdf:RDF>
  </metadata>
  <g
     inkscape:label="Layer 1"
     inkscape:groupmode="layer"
     id="layer1"
     transform="translate(0,-540.36218)">
    <path
       style="fill:url(#linearGradient3864);fill-opacity:1;stroke:none"
       d="M 0 0 L 0 177.125 L 386.84375 177.125 L 386.84375 234.28125 L 555.71875 234.28125 L 555.71875 130 L 1024 130 L 1024 0 L 0 0 z "
       transform="translate(0,540.36218)"
       id="rect2816" />
    <path
       style="fill:url(#linearGradient3814);fill-opacity:1;stroke:none"
       d="M 701.4375 64.84375 C 685.61789 64.84375 671.67577 72.881644 663.46875 85.09375 C 655.21942 76.986108 643.91783 72 631.4375 72 C 611.09785 72 593.87019 85.29128 587.9375 103.65625 C 582.81602 101.6717 577.25982 100.5625 571.4375 100.5625 C 550.22559 100.5625 532.37998 115.0014 527.21875 134.59375 C 523.9811 133.84021 520.62329 133.4375 517.15625 133.4375 C 492.69793 133.4375 472.84375 153.26043 472.84375 177.71875 C 472.84375 177.87568 472.84212 178.03095 472.84375 178.1875 C 462.50695 181.31963 453.80502 188.12916 448.1875 197.09375 C 443.81463 195.64888 439.13841 194.84375 434.28125 194.84375 C 427.56106 194.84375 421.20576 196.35279 415.5 199.03125 C 413.28723 175.84609 393.76426 157.71875 370 157.71875 C 359.76834 157.71875 350.33617 161.07132 342.71875 166.75 C 334.88256 152.83096 319.95497 143.4375 302.84375 143.4375 C 286.83654 143.4375 272.7599 151.66839 264.59375 164.125 C 258.37436 146.26639 241.41566 133.4375 221.4375 133.4375 C 209.36396 133.4375 198.39041 138.13573 190.21875 145.78125 C 185.47028 125.60041 167.34893 110.5625 145.71875 110.5625 C 139.17225 110.5625 132.94273 111.95882 127.3125 114.4375 C 119.56126 100.22096 104.48873 90.5625 87.15625 90.5625 C 65.16582 90.5625 46.778151 106.0924 42.40625 126.78125 C 40.223932 126.46144 37.989849 126.28125 35.71875 126.28125 C 21.262327 126.28125 8.3782154 132.99167 0 143.46875 L 0 200.53125 L 0 264.28125 L 252.5625 264.28125 L 252.5625 291.4375 L 272.84375 291.4375 L 272.84375 254.28125 L 392.65625 254.28125 C 398.83965 271.28687 415.13844 283.4375 434.28125 283.4375 C 450.10707 283.4375 463.98122 275.11073 471.8125 262.625 C 476.18438 264.06914 480.86287 264.84375 485.71875 264.84375 C 496.67124 264.84375 506.6756 260.86851 514.40625 254.28125 L 519.6875 254.28125 C 527.33015 260.02629 536.8589 263.4375 547.15625 263.4375 C 557.4536 263.4375 566.9511 260.02629 574.59375 254.28125 L 1024 254.28125 L 1024 173.59375 L 1024 87.53125 C 1019.1766 85.80051 1013.9811 84.84375 1008.5625 84.84375 C 990.44097 84.84375 974.80176 95.399663 967.40625 110.6875 C 959.02397 101.00576 946.65511 94.84375 932.84375 94.84375 C 921.69441 94.84375 911.49644 98.836934 903.5625 105.46875 C 895.98777 90.69129 880.59078 80.5625 862.84375 80.5625 C 845.77288 80.5625 830.91349 89.947573 823.0625 103.8125 C 816.75619 86.114222 799.86348 73.4375 780 73.4375 C 764.90479 73.4375 751.54348 80.751056 743.21875 92.03125 C 736.1055 76.025475 720.08202 64.84375 701.4375 64.84375 z "
       id="rect3590"
       transform="translate(0,540.36218)" />
    <path
       style="fill:url(#linearGradient3822);fill-opacity:1;stroke:none"
       d="M 968.5625 183.4375 C 949.22222 183.4375 932.53259 194.73256 924.71875 211.09375 C 917.16624 206.25466 908.19809 203.4375 898.5625 203.4375 C 878.65174 203.4375 861.56152 215.41713 854.0625 232.5625 C 846.08394 226.81658 836.30181 223.4375 825.71875 223.4375 C 816.54725 223.4375 807.9742 225.98837 800.65625 230.40625 C 792.70663 214.41792 776.22359 203.4375 757.15625 203.4375 C 740.02859 203.4375 724.96066 212.29532 716.3125 225.6875 C 707.96216 218.91024 697.31132 214.84375 685.71875 214.84375 C 669.7756 214.84375 655.6059 222.5424 646.75 234.40625 C 637.9957 225.86215 626.04278 220.5625 612.84375 220.5625 C 599.73959 220.5625 587.86216 225.78296 579.125 234.21875 C 570.21895 223.27518 556.64695 216.28125 541.4375 216.28125 C 523.24801 216.28125 507.38519 226.29294 499.0625 241.09375 C 490.52643 233.64533 479.37495 229.15625 467.15625 229.15625 C 457.65162 229.15625 448.8005 231.90634 441.3125 236.625 C 434.47729 218.07585 416.64088 204.84375 395.71875 204.84375 C 378.99345 204.84375 364.2367 213.31996 355.5 226.1875 C 346.59136 215.76474 333.34861 209.15625 318.5625 209.15625 C 295.11141 209.15625 275.55197 225.77145 271 247.875 C 269.72559 247.77473 268.45642 247.71875 267.15625 247.71875 C 240.33099 247.71875 218.5625 269.45599 218.5625 296.28125 C 218.5625 323.10651 240.33099 344.84375 267.15625 344.84375 C 287.06701 344.84375 304.15723 332.86412 311.65625 315.71875 L 318.28125 315.71875 L 318.28125 345.71875 L 465.71875 345.71875 L 465.71875 326.25 C 466.19735 326.26394 466.67427 326.28125 467.15625 326.28125 C 485.35255 326.28125 501.17984 316.2787 509.5 301.46875 C 518.03737 308.92246 529.21395 313.4375 541.4375 313.4375 C 554.54166 313.4375 566.41909 308.21704 575.15625 299.78125 C 584.0623 310.72482 597.6343 317.71875 612.84375 317.71875 C 628.7869 317.71875 642.9566 310.05135 651.8125 298.1875 C 660.56645 306.7293 672.52173 312 685.71875 312 C 702.85845 312 717.91728 303.12671 726.5625 289.71875 C 734.91322 296.49724 745.56252 300.5625 757.15625 300.5625 C 766.32829 300.5625 774.90051 298.01212 782.21875 293.59375 C 788.90418 307.03705 801.62476 316.9381 816.84375 319.75 L 816.84375 345.71875 L 1024 345.71875 L 1024 291.4375 L 1024 287.34375 L 1024 190.9375 C 1016.543 191.85974 1009.6095 194.47055 1003.5938 198.375 C 994.75495 189.1709 982.33103 183.4375 968.5625 183.4375 z "
       transform="translate(0,540.36218)"
       id="rect3595" />
    <path
       style="fill:url(#linearGradient3848);fill-opacity:1;stroke:none"
       d="M 643.5625 240.5625 C 627.03232 240.5625 612.60443 249.49904 604.78125 262.78125 C 596.54628 252.22258 583.70902 245.4375 569.28125 245.4375 C 551.26003 245.4375 535.71676 256.0132 528.53125 271.3125 C 521.22072 266.17947 512.3298 263.15625 502.71875 263.15625 C 482.47091 263.15625 465.36958 276.51103 459.71875 294.90625 C 459.10344 294.8813 458.46518 294.84375 457.84375 294.84375 C 436.64817 294.84375 418.89681 309.52073 414.125 329.25 C 408.24556 326.4329 401.67359 324.84375 394.71875 324.84375 C 386.21584 324.84375 378.25165 327.2143 371.46875 331.3125 C 363.46842 318.84156 349.47918 310.5625 333.5625 310.5625 C 308.70969 310.5625 288.5625 330.70969 288.5625 355.5625 C 288.5625 375.04841 300.95338 391.64843 318.28125 397.90625 L 318.28125 400 L 326.53125 400 C 328.82554 400.36055 331.16694 400.5625 333.5625 400.5625 C 335.98719 400.5625 338.36526 400.36703 340.6875 400 L 361.34375 400 C 369.57905 409.10403 381.47332 414.84375 394.71875 414.84375 C 407.96599 414.84375 419.88737 409.10746 428.125 400 L 590 400 L 590 365.71875 L 816.0625 365.71875 C 820.24601 367.00667 824.67531 367.71875 829.28125 367.71875 C 833.90652 367.71875 838.36273 367.01484 842.5625 365.71875 L 874.375 365.71875 C 874.32115 366.62026 874.28125 367.52246 874.28125 368.4375 C 874.28125 393.29031 894.42844 413.4375 919.28125 413.4375 C 937.02966 413.4375 952.36277 403.1448 959.6875 388.21875 C 965.96255 391.54074 973.12428 393.4375 980.71875 393.4375 C 988.88112 393.4375 996.52481 391.23683 1003.125 387.4375 C 1009.218 391.4534 1016.3273 394.03807 1024 394.6875 L 1024 365.71875 L 1024 345.71875 L 1024 305 C 1017.2825 305.57441 1010.9916 307.64431 1005.4375 310.84375 C 998.34156 306.16817 989.85215 303.4375 980.71875 303.4375 C 962.95534 303.4375 947.59859 313.70973 940.28125 328.65625 C 934.01203 325.34226 926.86592 323.4375 919.28125 323.4375 C 902.71775 323.4375 888.24967 332.39214 880.4375 345.71875 L 867.96875 345.71875 C 871.97902 338.98805 874.28125 331.12256 874.28125 322.71875 C 874.28125 297.86594 854.13406 277.71875 829.28125 277.71875 C 820.10747 277.71875 811.5836 280.4739 804.46875 285.1875 C 796.30822 273.75925 782.95695 266.28125 767.84375 266.28125 C 759.24503 266.28125 751.23885 268.7223 744.40625 272.90625 C 736.16198 263.59903 724.13005 257.71875 710.71875 257.71875 C 700.8233 257.71875 691.67875 260.93046 684.25 266.34375 C 677.03852 251.11216 661.53432 240.5625 643.5625 240.5625 z M 0 264.28125 L 0 315.71875 L 252.5625 315.71875 L 252.5625 264.28125 L 0 264.28125 z "
       transform="translate(0,540.36218)"
       id="rect3600" />
    <path
       style="fill:#73c9eb;fill-opacity:1;stroke:none"
       d="M 95.71875 216.28125 C 77.301374 216.28125 61.624815 227.91229 55.5625 244.21875 C 48.979051 240.09836 41.182936 237.71875 32.84375 237.71875 C 19.648967 237.71875 7.8579734 243.68811 0 253.0625 L 0 308.09375 C 7.8579756 317.47504 19.650352 323.4375 32.84375 323.4375 C 51.265582 323.4375 67.003385 311.81267 73.0625 295.5 C 79.637684 299.60541 87.396011 302 95.71875 302 C 106.63858 302 116.58823 297.91139 124.15625 291.1875 C 131.81288 302.86061 144.99704 310.5625 160 310.5625 C 170.59379 310.5625 180.27027 306.7127 187.75 300.34375 C 194.30829 315.60746 209.48984 326.28125 227.15625 326.28125 C 250.8256 326.28125 270 307.10685 270 283.4375 C 270 259.76815 250.8256 240.5625 227.15625 240.5625 C 216.5648 240.5625 206.85405 244.41483 199.375 250.78125 C 192.80893 235.53538 177.6535 224.84375 160 224.84375 C 149.08017 224.84375 139.13052 228.96361 131.5625 235.6875 C 123.90647 224.01094 110.72435 216.28125 95.71875 216.28125 z "
       transform="translate(0,540.36218)"
       id="path3763" />
    <path
       style="fill:url(#linearGradient3856);fill-opacity:1;stroke:none"
       d="M 233.5625 259.15625 C 219.48614 259.15625 206.9391 265.62937 198.6875 275.75 C 190.44323 266.44278 178.4113 260.5625 165 260.5625 C 145.30513 260.5625 128.56877 273.22379 122.46875 290.84375 C 114.33033 282.73693 103.11347 277.71875 90.71875 277.71875 C 71.735574 277.71875 55.486085 289.46626 48.875 306.09375 C 44.094474 304.36365 38.940085 303.4375 33.5625 303.4375 C 21.600533 303.4375 10.747482 308.10585 2.6875 315.71875 L 0 315.71875 L 0 318.4375 L 0 378.40625 L 0 400 L 0 512 L 318.28125 512 L 1024 512 L 1024 413.1875 L 1024 363.65625 C 1015.9473 351.47594 1002.132 343.4375 986.4375 343.4375 C 971.13657 343.4375 957.63025 351.0803 949.5 362.75 C 941.67366 349.4806 927.23927 340.5625 910.71875 340.5625 C 904.01437 340.5625 897.65386 342.02715 891.9375 344.65625 C 885.70518 327.28045 869.08277 314.84375 849.5625 314.84375 C 836.13527 314.84375 824.08877 320.736 815.84375 330.0625 C 807.59883 320.7386 795.58135 314.84375 782.15625 314.84375 C 762.16098 314.84375 745.20548 327.8967 739.34375 345.9375 C 731.24109 334.072 717.60864 326.28125 702.15625 326.28125 C 683.99141 326.28125 668.35806 337.066 661.25 352.5625 C 653.01498 343.4488 641.09418 337.71875 627.84375 337.71875 C 606.12104 337.71875 588.03415 353.12115 583.8125 373.59375 C 575.68174 365.54175 564.50344 360.5625 552.15625 360.5625 C 530.35518 360.5625 512.16731 376.07315 508.03125 396.65625 C 499.7765 386.82255 487.40622 380.5625 473.5625 380.5625 C 459.0842 380.5625 446.20014 387.40915 437.96875 398.03125 C 430.53176 383.42695 415.35596 373.4375 397.84375 373.4375 C 389.11641 373.4375 380.99188 375.91855 374.09375 380.21875 C 372.39451 360.51065 358.00225 344.4667 339.125 340.25 C 339.71182 337.3502 340 334.35415 340 331.28125 C 340 306.42845 319.85281 286.28125 295 286.28125 C 288.36602 286.28125 282.07597 287.73513 276.40625 290.3125 C 270.5729 272.22314 253.59244 259.15625 233.5625 259.15625 z "
       transform="translate(0,540.36218)"
       id="rect3605" />
  </g>
</svg>
